<?xml version="1.0" encoding="UTF-8" standalone="no"?>
<!-- Created with Inkscape (http://www.inkscape.org/) -->

<svg
   xmlns:dc="http://purl.org/dc/elements/1.1/"
   xmlns:cc="http://creativecommons.org/ns#"
   xmlns:rdf="http://www.w3.org/1999/02/22-rdf-syntax-ns#"
   xmlns:svg="http://www.w3.org/2000/svg"
   xmlns="http://www.w3.org/2000/svg"
   xmlns:sodipodi="http://sodipodi.sourceforge.net/DTD/sodipodi-0.dtd"
   xmlns:inkscape="http://www.inkscape.org/namespaces/inkscape"
   width="78.940918mm"
   height="32.184082mm"
   viewBox="0 0 78.940918 32.184082"
   version="1.1"
   id="svg8"
   sodipodi:docname="voila.svg"
   inkscape:version="0.92.3 (2405546, 2018-03-11)">
  <defs
     id="defs2" />
  <sodipodi:namedview
     id="base"
     pagecolor="#ffffff"
     bordercolor="#666666"
     borderopacity="1.0"
     inkscape:pageopacity="0.0"
     inkscape:pageshadow="2"
     inkscape:zoom="1.979899"
     inkscape:cx="282.6694"
     inkscape:cy="-59.694142"
     inkscape:document-units="mm"
     inkscape:current-layer="text817"
     showgrid="false"
     fit-margin-top="0"
     fit-margin-left="0"
     fit-margin-right="0"
     fit-margin-bottom="0"
     inkscape:lockguides="true"
     inkscape:window-width="2426"
     inkscape:window-height="1329"
     inkscape:window-x="134"
     inkscape:window-y="55"
     inkscape:window-maximized="1" />
  <metadata
     id="metadata5">
    <rdf:RDF>
      <cc:Work
         rdf:about="">
        <dc:format>image/svg+xml</dc:format>
        <dc:type
           rdf:resource="http://purl.org/dc/dcmitype/StillImage" />
        <dc:title></dc:title>
      </cc:Work>
    </rdf:RDF>
  </metadata>
  <g
     inkscape:label="Layer 1"
     inkscape:groupmode="layer"
     id="layer1"
     transform="translate(-65.806244,-91.600204)">
    <g
       aria-label="[voilà]"
       style="font-style:normal;font-variant:normal;font-weight:normal;font-stretch:normal;font-size:10.58333302px;line-height:1.25;font-family:Manjari;-inkscape-font-specification:Manjari;letter-spacing:0px;word-spacing:0px;fill:#000000;fill-opacity:1;stroke:none;stroke-width:0.26458332"
       id="text817">
      <path
         d="m 67.356537,94.886826 c -0.852661,0 -1.550293,0.697631 -1.550293,1.550293 l 0.03101,25.781371 c 0,0.85266 0.697632,1.55029 1.550293,1.55029 l 6.867798,0.0155 h 0.0155 c 0.852661,0 1.550292,-0.69764 1.550292,-1.5503 0,-0.85266 -0.697631,-1.55029 -1.550292,-1.55029 h -0.0155 l -5.317505,-0.0155 -0.03101,-22.680789 h 5.348511 c 0.852661,0 1.550293,-0.697631 1.550293,-1.550292 0,-0.852662 -0.697632,-1.550293 -1.550293,-1.550293 z"
         style="font-style:normal;font-variant:normal;font-weight:bold;font-stretch:normal;font-family:Manjari;-inkscape-font-specification:'Manjari Bold';fill:#f37726;fill-opacity:1"
         id="path4799" />
      <path
         d="m 76.048512,101.52208 c 0,0.12402 0.03101,0.34106 0.09302,0.46509 l 6.201172,14.04565 c 0.155029,0.35657 0.604614,0.65112 0.992187,0.65112 0.387574,0 0.837159,-0.29455 0.992188,-0.65112 l 6.201172,-13.99914 c 0.06201,-0.12403 0.10852,-0.32557 0.10852,-0.44959 0,-0.60461 -0.480591,-1.0852 -1.085205,-1.0852 -0.403076,0 -0.852661,0.31005 -1.00769,0.66662 l -5.193482,11.75122 -5.224487,-11.81323 c -0.155029,-0.37207 -0.589111,-0.66663 -0.992187,-0.66663 -0.604615,0 -1.085206,0.4961 -1.085206,1.08521 z"
         style="fill:#4e4e4e;fill-opacity:1"
         id="path4801" />
      <path
         d="m 98.61561,100.42137 c -4.325317,0 -7.735962,3.81372 -7.735962,8.12354 0,4.34082 3.395142,8.13903 7.797974,8.13903 4.340818,-0.031 7.704958,-3.82922 7.704958,-8.13903 0,-4.32532 -3.42615,-8.12354 -7.76697,-8.12354 z m 0,2.32544 c 3.06958,0 5.44153,2.72852 5.44153,5.7981 0,3.06958 -2.34094,5.78259 -5.395021,5.8136 -3.116089,0 -5.457031,-2.74402 -5.457031,-5.84461 0,-3.05408 2.371948,-5.76709 5.410522,-5.76709 z"
         style="fill:#4e4e4e;fill-opacity:1"
         id="path4803" />
      <path
         d="m 108.70285,101.44456 0.031,14.06116 c 0,0.65113 0.51159,1.17822 1.16272,1.17822 0.63562,0 1.16272,-0.52709 1.16272,-1.16272 l -0.031,-13.90612 c 0,-0.69763 -0.5271,-1.17823 -1.25574,-1.17823 -0.43408,0 -1.0697,0.46509 -1.0697,1.00769 z"
         style="fill:#4e4e4e;fill-opacity:1"
         id="path4805"
         inkscape:connector-curvature="0"
         sodipodi:nodetypes="ccsccsc" />
      <path
         d="m 114.99187,94.871323 c -0.58911,0 -1.0852,0.604614 -1.0852,1.209228 v 19.487179 c 0,0.68213 0.5426,1.16272 1.25573,1.16272 0.44959,0 1.06971,-0.44958 1.06971,-0.99218 V 96.049545 c 0,-0.558105 -0.4806,-1.178222 -1.24024,-1.178222 z"
         style="fill:#4e4e4e;fill-opacity:1"
         id="path4807" />
      <path
         d="m 125.63722,92.68541 c 0,0.263549 0.15503,0.620117 0.34106,0.790649 l 5.17798,4.464844 c 0.18604,0.155029 0.89917,0.728637 1.34876,0.186035 0.29455,-0.356568 0.37207,-0.728638 -0.12403,-1.27124 l -4.89892,-4.945435 c -0.17054,-0.170532 -0.5116,-0.310059 -0.75965,-0.310059 -0.60461,0 -1.0852,0.496094 -1.0852,1.085206 z m 0.29455,7.75146 c -4.34082,0 -7.58093,3.89124 -7.58093,8.12354 0,4.2478 3.25562,8.07703 7.50342,8.07703 2.06189,0 4.01526,-1.42627 5.37952,-2.91455 v 1.76733 c 0,0.60461 0.48059,1.0852 1.0852,1.0852 0.60462,0 1.08521,-0.48059 1.08521,-1.0852 v -14.01465 c 0,-0.60461 -0.48059,-1.0852 -1.08521,-1.0852 -0.60461,0 -0.94568,0.49609 -0.94568,1.0852 l -0.13952,1.95337 c -1.31775,-1.42627 -3.08509,-2.99207 -5.30201,-2.99207 z m 5.37952,8.03052 c 0,3.02307 -2.49597,5.84461 -5.45703,5.84461 -2.94556,0 -5.17798,-2.77503 -5.17798,-5.75159 0,-3.00757 2.24793,-5.7981 5.271,-5.7981 2.97656,0 5.36401,2.71302 5.36401,5.70508 z"
         style="fill:#4e4e4e;fill-opacity:1"
         id="path4809" />
      <path
         d="m 143.19687,94.871323 h -6.8988 c -0.85267,0 -1.5503,0.697631 -1.5503,1.550293 0,0.852661 0.69763,1.550293 1.5503,1.550293 h 5.34851 l -0.031,22.680781 -5.3175,0.0155 h -0.0155 c -0.85266,0 -1.55029,0.69763 -1.55029,1.55029 0,0.85266 0.69763,1.55029 1.55029,1.55029 h 0.0155 l 6.86779,-0.0155 c 0.85266,0 1.5503,-0.69763 1.5503,-1.55029 l 0.031,-25.781374 c 0,-0.852662 -0.69763,-1.550293 -1.55029,-1.550293 z"
         style="font-style:normal;font-variant:normal;font-weight:bold;font-stretch:normal;font-family:Manjari;-inkscape-font-specification:'Manjari Bold';fill:#f37726;fill-opacity:1"
         id="path4811" />
    </g>
  </g>
</svg>
