<svg width="330" height="330" data-name="Calque 1" version="1.1" viewBox="0 0 330 330" xmlns="http://www.w3.org/2000/svg">
 <defs>
  <style>.cls-1{fill:#5dbcaf;}.cls-2{fill:#268380;}.cls-3{fill:#f8e14b;}</style>
 </defs>
 <title>Voila</title>
 <g class="jp-icon3">
  <path class="cls-2" d="m165 320c-85.47 0-155-69.53-155-155s69.53-155 155-155 155 69.53 155 155-69.53 155-155 155zm0-275.49a120.49 120.49 0 1 0 120.49 120.49 120.62 120.62 0 0 0-120.49-120.49z" fill="#616161"/>
  <path class="cls-3" d="m165 320c-85.47 0-155-69.53-155-155a17.26 17.26 0 1 1 34.51 0 120.62 120.62 0 0 0 120.49 120.49 17.26 17.26 0 1 1 0 34.51z" fill="#f8e14b"/>
</g>
</svg>
