<?xml version="1.0" encoding="UTF-8" standalone="no"?>
<svg
   xmlns:dc="http://purl.org/dc/elements/1.1/"
   xmlns:cc="http://creativecommons.org/ns#"
   xmlns:rdf="http://www.w3.org/1999/02/22-rdf-syntax-ns#"
   xmlns:svg="http://www.w3.org/2000/svg"
   xmlns="http://www.w3.org/2000/svg"
   xmlns:sodipodi="http://sodipodi.sourceforge.net/DTD/sodipodi-0.dtd"
   xmlns:inkscape="http://www.inkscape.org/namespaces/inkscape"
   id="Calque_1"
   data-name="Calque 1"
   viewBox="0 0 330.005 330.005"
   version="1.1"
   sodipodi:docname="voila-dark.svg"
   inkscape:version="0.92.3 (2405546, 2018-03-11)"
   width="330.005"
   height="330.005">
  <metadata
     id="metadata17">
    <rdf:RDF>
      <cc:Work
         rdf:about="">
        <dc:format>image/svg+xml</dc:format>
        <dc:type
           rdf:resource="http://purl.org/dc/dcmitype/StillImage" />
        <dc:title>BLEU-proposition-icone</dc:title>
      </cc:Work>
    </rdf:RDF>
  </metadata>
  <sodipodi:namedview
     pagecolor="#ffffff"
     bordercolor="#666666"
     borderopacity="1"
     objecttolerance="10"
     gridtolerance="10"
     guidetolerance="10"
     inkscape:pageopacity="0"
     inkscape:pageshadow="2"
     inkscape:window-width="2426"
     inkscape:window-height="1329"
     id="namedview15"
     showgrid="false"
     inkscape:zoom="1.888"
     inkscape:cx="97.210877"
     inkscape:cy="202.16763"
     inkscape:window-x="134"
     inkscape:window-y="55"
     inkscape:window-maximized="1"
     inkscape:current-layer="Calque_1"
     fit-margin-top="10"
     fit-margin-left="10"
     fit-margin-right="10"
     fit-margin-bottom="10" />
  <defs
     id="defs4">
    <style
       id="style2">.cls-1{fill:#5dbcaf;}.cls-2{fill:#268380;}.cls-3{fill:#f8e14b;}</style>
  </defs>
  <title
     id="title6">BLEU-proposition-icone</title>
  <path
     class="cls-2"
     d="m 165.005,320 c -85.47,0 -155,-69.53 -155,-155 0,-85.47 69.53,-155 155,-155 85.47,0 155,69.53 155,155 0,85.47 -69.53,155 -155,155 z m 0,-275.49 A 120.49,120.49 0 1 0 285.495,165 120.62,120.62 0 0 0 165.005,44.51 Z"
     id="path10"
     style="fill:#bbbbbb;fill-opacity:1"
     inkscape:connector-curvature="0" />
  <path
     class="cls-3"
     d="m 165.005,320 c -85.47,0 -155,-69.53 -155,-155 a 17.26,17.26 0 1 1 34.51,0 120.62,120.62 0 0 0 120.49,120.49 17.26,17.26 0 1 1 0,34.51 z"
     id="path12"
     inkscape:connector-curvature="0"
     style="fill:#d97d24;fill-opacity:1" />
</svg>
