<svg width="16" height="16" version="1.1" viewBox="0 0 5.8208 5.8208" xmlns="http://www.w3.org/2000/svg">
 <g transform="translate(-80.642 -138.91)">
  <g fill="#e0e0e0" stroke-width=".043931" aria-label="[v]">
   <path d="m80.899 139.43c-0.14157 0-0.25741 0.11584-0.25741 0.25741l0.0051 4.2807c0 0.14157 0.11583 0.25741 0.25741 0.25741l1.1403 3e-3h0.0026c0.14157 0 0.25741-0.11583 0.25741-0.2574 0-0.14158-0.11583-0.25741-0.25741-0.25741h-0.0026l-0.88291-3e-3 -0.0051-3.7659h0.88805c0.14157 0 0.25741-0.11584 0.25741-0.25741s-0.11583-0.25741-0.25741-0.25741z"/>
   <path d="m82.342 140.53c0 0.0206 0.0051 0.0566 0.01544 0.0772l1.0296 2.3321c0.02574 0.0592 0.10039 0.10811 0.16474 0.10811 0.06435 0 0.139-0.0489 0.16474-0.10811l1.0296-2.3244c0.0103-0.0206 0.01802-0.0541 0.01802-0.0746 0-0.10039-0.0798-0.18018-0.18018-0.18018-0.06693 0-0.14157 0.0515-0.16732 0.11068l-0.86231 1.9512-0.86746-1.9614c-0.02574-0.0618-0.09781-0.11069-0.16474-0.11069-0.10039 0-0.18018 0.0824-0.18018 0.18019z"/>
   <path d="m86.205 139.42h-1.1455c-0.14157 0-0.25741 0.11583-0.25741 0.25741 0 0.14157 0.11583 0.2574 0.25741 0.2574h0.88806l-0.0051 3.7659-0.88291 3e-3h-0.0026c-0.14157 0-0.25741 0.11584-0.25741 0.25741s0.11583 0.25741 0.25741 0.25741h0.0026l1.1403-3e-3c0.14157 0 0.25741-0.11583 0.25741-0.2574l0.0051-4.2807c0-0.14158-0.11583-0.25741-0.25741-0.25741z"/>
  </g>
 </g>
</svg>
