<svg xmlns="http://www.w3.org/2000/svg" viewBox="0 0 410 170" width="410" height="170"><defs><style>.cls-1{fill:#5dbcaf;}.cls-2{fill:#f8e14b;}</style></defs><title>BLEU-fond-transparent</title><g id="Calque_2" data-name="Calque 2"><g id="Calque_1-2" data-name="Calque 1"><path class="cls-1" d="M77.39,94.6a20.39,20.39,0,0,1-2.08.11,19.6,19.6,0,0,1-2.06-.12l-.39,0,0,.39a54.76,54.76,0,0,1-2.1,19.46,90.47,90.47,0,0,1-14.66,28.5,94.15,94.15,0,0,1-17,17.44c-6.63,5-12.85,7.48-18.46,7.48-4.27,0-7.7-.76-10.19-2.26a19,19,0,0,1-5.61-4.72c-5-6.37-6.21-17.1-3.47-31.88,1.87-11.53,6.31-26.43,13.19-44.31a4.92,4.92,0,0,1,2.71-2.88,5.92,5.92,0,0,1,2.44-.54,6.37,6.37,0,0,1,1.77.26,6.6,6.6,0,0,1,3.23,2.79,3.43,3.43,0,0,1,.15,3.5l0,.1a294.43,294.43,0,0,0-10,30.48,126.23,126.23,0,0,0-3.72,19.75c-.41,5.14-.28,8.92.4,11.56a17.06,17.06,0,0,0,2.21,5.61,7.9,7.9,0,0,0,2.36,1.89,9.62,9.62,0,0,0,4.56.85c2.89,0,6.72-1.73,11.7-5.28,4.77-3.4,9.63-8.46,14.43-15.05a90.13,90.13,0,0,0,7.23-11.24,76.07,76.07,0,0,0,5.56-12.83,52,52,0,0,0,2.57-13.18A27,27,0,0,0,60,88a3.69,3.69,0,0,1,.07-3.55,6.14,6.14,0,0,1,1-1.29l.05-.07a5.39,5.39,0,0,1,.4-.54A4.81,4.81,0,0,1,65.09,81a5.1,5.1,0,0,1,3.07,1.08,5.56,5.56,0,0,1,1.24,1A10.44,10.44,0,0,0,75.33,85a8.47,8.47,0,0,0,1-.06A10.46,10.46,0,0,0,83,81.38a4.87,4.87,0,0,1,3.71-1.72,4.88,4.88,0,0,1,3.71,8A20.21,20.21,0,0,1,77.39,94.6ZM201.56,66.76A5.26,5.26,0,0,0,208,63,30.2,30.2,0,0,1,210,57.74a31.09,31.09,0,0,1,2.23-3.89,5.27,5.27,0,1,0-8.73-5.9,41,41,0,0,0-5.62,12.37,5.25,5.25,0,0,0,3.73,6.44Zm-34.14,41.61c1.69,21.74-13.42,50.21-38.62,57.94a44,44,0,0,1-13.12,2.27A26.29,26.29,0,0,1,102,165c-9.81-5.91-12.34-16.63-13.29-20.66-4.77-20.24,7.94-38.52,13.63-45.44,4.11-5,19-21.13,38.71-18.9,3.47.4,12.7,1.45,19.51,9.76C165.91,96.31,167,103.52,167.42,108.37Zm-10.67.83c-.29-3.7-1.06-8.49-4.51-12.7-4.06-5-9.73-5.6-12.45-5.91a23.5,23.5,0,0,0-2.52-.14c-13.18,0-23.78,11.64-26.71,15.2-4.68,5.69-15.16,20.61-11.49,36.2.73,3.1,2.45,10.36,8.4,14,6.44,3.88,14.38,1.45,18.19.29l0,.15,0-.16C145.66,150,158.1,126.45,156.75,109.2Zm246.47,26.87c-.8,2.87-8.35,28.11-28.46,32.05a30,30,0,0,1-5.83.6,20.65,20.65,0,0,1-11.73-3.4c-6.52-4.39-10.11-12.51-9.66-21.81l-2,2.42a80.29,80.29,0,0,1-6.27,6.69c-2.16,2-4.35,3.94-6.51,5.63a46.86,46.86,0,0,1-15.87,8.21,24.58,24.58,0,0,1-14.92.23,19,19,0,0,1-7.8-5,21.82,21.82,0,0,1-4.75-8.28,26.43,26.43,0,0,1-1.22-6.81,83.12,83.12,0,0,1-12.87,11.51c-6.31,4.53-12.43,6.83-18.19,6.83-4.54,0-8.09-.82-10.56-2.43a19.48,19.48,0,0,1-5.63-5.14c-2.55-3.59-4-8.48-4.42-14.52-1.61,1.85-3.14,3.53-4.66,5.11a102.19,102.19,0,0,1-15.61,13.39c-7,4.41-13.66,6.64-19.75,6.64-4.6,0-8.29-.76-11-2.25a20.22,20.22,0,0,1-6.1-4.73c-5.51-6.42-6.79-17.22-3.8-32.09,2-11.55,6.85-26.47,14.31-44.36a5.2,5.2,0,0,1,3-3,6.66,6.66,0,0,1,4.5-.26A6.37,6.37,0,0,1,201,84.09,3.69,3.69,0,0,1,201,87.9l0,.08a278.26,278.26,0,0,0-10.83,30.45,116.68,116.68,0,0,0-4,19.82c-.45,5.17-.31,8.92.43,11.47a16,16,0,0,0,2.29,5.33l.05.06a8.31,8.31,0,0,0,2.55,1.89,11.3,11.3,0,0,0,5,.86c3.5,0,7.45-1.4,12.08-4.29a73.36,73.36,0,0,0,13.92-11.85c2.07-2.17,4-4.36,5.62-6.49,1.39-1.8,2.35-2.92,3-3.74s1-1.18,1.42-1.75a61.19,61.19,0,0,0,3.84-5.85,50.71,50.71,0,0,0,3.11-6.58c1.5-6.35,3.55-13.46,6.09-21.09,2.34-6.72,4.93-13.66,7.67-20.63s5.54-13.76,8.39-20.42,13.24-29.51,16-35.37l7.8-16.64a5.51,5.51,0,0,1,3.1-2.74A5.67,5.67,0,0,1,290.67,0a6,6,0,0,1,2.14.41,5,5,0,0,1,2.86,2.87,4.55,4.55,0,0,1-.09,3.92C281.4,37,262.84,79.54,256.31,99c-4.59,13.45-7.39,24.68-8.34,33.38-.82,6.13-.89,10.5-.22,13.35a16.6,16.6,0,0,0,2.32,6,6.09,6.09,0,0,0,2.28,2.1,9.5,9.5,0,0,0,4.77,1c3.23,0,6.87-1.45,11.15-4.42a73.22,73.22,0,0,0,12.82-11.93l.63-.71c1.26-1.44,2.83-3.22,4.63-5.63a82.8,82.8,0,0,0,5.07-7.78l1.15-1.93c6.3-10.45,8.5-13.15,9.61-14.28a91.3,91.3,0,0,1,9.13-10c4.62-4.38,11-10.38,20.76-13.87a45.63,45.63,0,0,1,5-1.45l.88-.22c7.2-2.08,13.31-1.84,18.68.72a19.88,19.88,0,0,1,9.56,8.66c3.24,6.23,2.57,13.48-2.32,25a75.27,75.27,0,0,0-4.64,25.65,34.57,34.57,0,0,0,.9,8.81l0,.11-.1.07-.14.08,0,0a10,10,0,0,0,3.48,4.41c3.36,2.26,7.6,1.43,9.2,1.12,13.84-2.71,19.83-23.9,19.89-24.11a5.56,5.56,0,0,1,6.84-3.88,5.56,5.56,0,0,1,3.88,6.85Zm-46.87-39a9.29,9.29,0,0,0-4.48-3.74c-4.39-2.1-9.23-.7-14.22,1-13.19,4.62-23,15.31-28.83,23.47l-.09.13h0a60.62,60.62,0,0,0-7.28,15.74c-1.8,5.82-2.37,10.89-1.71,15.08.73,4.56,2.74,7.4,6,8.45,2,.67,4.73.57,8.19-.29s7.27-2.94,11.7-6.24a102.09,102.09,0,0,0,12.75-12.75A103.2,103.2,0,0,0,351,118.44C355.74,108.53,358.45,101.1,356.35,97.05Z"/><path class="cls-2" d="M381.52,72.31a43.42,43.42,0,0,1-43.38-43.37,5.59,5.59,0,1,1,11.18,0,32.24,32.24,0,0,0,32.2,32.2,5.59,5.59,0,0,1,0,11.17Z"/></g></g></svg>
